{
  "accessors": [
    {
      "bufferView": 0,
      "byteOffset": 0,
      "componentType": 5123,
      "count": 6,
      "type": "SCALAR",
      "max": [3],
      "min": [0]
    },
    {
      "bufferView": 1,
      "byteOffset": 0,
      "componentType": 5126,
      "count": 4,
      "type": "VEC3",
      "max": [1, 1, 0],
      "min": [0, 0, 0]
    }
  ],
  "asset": {
    "version": "2.0"
  },
  "bufferViews": [
    {
      "buffer": 0,
      "byteOffset": 0,
      "byteLength": 12,
      "target": 34963
    },
    {
      "buffer": 0,
      "byteOffset": 12,
      "byteLength": 48,
      "target": 34962
    }
  ],
  "buffers": [
    {
      "uri": "data:application/octet-stream;base64,",
      "byteLength": 60
    }
  ],
  "cameras": [
    {
      "type": "perspective",
      "perspective": {
        "aspectRatio": 1,
        "yfov": 0.7,
        "zfar": 100,
        "znear": 0.01
      }
    },
    {
      "type": "orthographic",
      "orthographic": {
        "xmag": 1,
        "ymag": 1,
        "zfar": 100,
        "znear": 0.01
      }
    }
  ],
  "meshes": [
    {
      "primitives": [
        {
          "attributes": {
            "POSITION": 1
          },
          "indices": 0
        }
      ]
    }
  ],
  "nodes": [
    {
      "rotation": [-0.383, 0, 0, 0.92375],
      "mesh": 0
    },
    {
      "translation": [0.5, 0.5, 3],
      "camera": 0
    },
    {
      "translation": [0.5, 0.5, 3],
      "camera": 1
    }
  ],
  "scene": 0,
  "scenes": [
    {
      "nodes": [0, 1, 2]
    }
  ]
}
