{
  "accessors": [
    {
      "bufferView": 0,
      "byteOffset": 0,
      "componentType": 5120,
      "count": 2399,
      "type": "VEC3",
      "normalized": true
    },
    {
      "bufferView": 1,
      "byteOffset": 0,
      "componentType": 5123,
      "count": 2399,
      "type": "VEC3",
      "min": [0, 0, 0],
      "max": [16383, 15251, 11411]
    },
    {
      "bufferView": 2,
      "byteOffset": 0,
      "componentType": 5123,
      "count": 2399,
      "type": "VEC2"
    },
    {
      "bufferView": 3,
      "byteOffset": 0,
      "componentType": 5123,
      "count": 12636,
      "type": "SCALAR"
    }
  ],
  "asset": {
    "version": "2.0",
    "generator": "gltfpack 0.13"
  },
  "bufferViews": [
    {
      "buffer": 0,
      "byteOffset": 0,
      "byteLength": 9596,
      "byteStride": 4,
      "target": 34962
    },
    {
      "buffer": 0,
      "byteOffset": 9596,
      "byteLength": 19192,
      "byteStride": 8,
      "target": 34962
    },
    {
      "buffer": 0,
      "byteOffset": 28788,
      "byteLength": 9596,
      "byteStride": 4,
      "target": 34962
    },
    {
      "buffer": 0,
      "byteOffset": 38384,
      "byteLength": 25272,
      "target": 34963
    }
  ],
  "buffers": [
    {
      "uri": "Duck.bin",
      "byteLength": 63656
    }
  ],
  "cameras": [
    {
      "type": "perspective",
      "perspective": {
        "yfov": 0.660592556,
        "znear": 1,
        "aspectRatio": 1.5,
        "zfar": 10000
      }
    }
  ],
  "extensionsRequired": ["KHR_mesh_quantization"],
  "extensionsUsed": ["KHR_mesh_quantization", "KHR_texture_transform"],
  "images": [
    {
      "uri": "DuckCM.png"
    }
  ],
  "materials": [
    {
      "name": "blinn3-fx",
      "pbrMetallicRoughness": {
        "baseColorTexture": {
          "index": 0,
          "texCoord": 0,
          "extensions": {
            "KHR_texture_transform": {
              "offset": [0.0264090002, 0.019963026],
              "scale": [0.000233684244, 0.000234450286]
            }
          }
        },
        "metallicFactor": 0
      }
    }
  ],
  "meshes": [
    {
      "primitives": [
        {
          "attributes": {
            "NORMAL": 0,
            "POSITION": 1,
            "TEXCOORD_0": 2
          },
          "mode": 4,
          "indices": 3,
          "material": 0
        }
      ]
    }
  ],
  "nodes": [
    {
      "mesh": 0,
      "translation": [-0.692984998, 0.0992936939, -0.613281965],
      "scale": [0.000101006161, 0.000101006161, 0.000101006161]
    },
    {
      "matrix": [
        0.00999999978, 0, 0, 0, 0, 0.00999999978, 0, 0, 0, 0, 0.00999999978, 0, 0, 0, 0, 1
      ],
      "children": [2]
    },
    {
      "matrix": [
        -0.72896868, 0, -0.684547067, 0, -0.425204903, 0.783693433, 0.452797294, 0, 0.536475062,
        0.621147811, -0.57128799, 0, 400.113007, 463.264008, -431.078033, 1
      ],
      "camera": 0
    }
  ],
  "scene": 0,
  "scenes": [
    {
      "nodes": [0, 1]
    }
  ],
  "textures": [
    {
      "source": 0
    }
  ]
}
