{
  "accessors": [
    {
      "bufferView": 0,
      "byteOffset": 0,
      "componentType": 5123,
      "count": 406,
      "type": "VEC2"
    },
    {
      "bufferView": 1,
      "byteOffset": 0,
      "componentType": 5120,
      "count": 406,
      "type": "VEC3",
      "normalized": true
    },
    {
      "bufferView": 2,
      "byteOffset": 0,
      "componentType": 5120,
      "count": 406,
      "type": "VEC4",
      "normalized": true
    },
    {
      "bufferView": 3,
      "byteOffset": 0,
      "componentType": 5123,
      "count": 406,
      "type": "VEC3",
      "min": [0, 0, 0],
      "max": [11086, 16383, 7194]
    },
    {
      "bufferView": 4,
      "byteOffset": 0,
      "componentType": 5123,
      "count": 2046,
      "type": "SCALAR"
    }
  ],
  "asset": {
    "version": "2.0",
    "generator": "gltfpack 0.13"
  },
  "bufferViews": [
    {
      "buffer": 0,
      "byteOffset": 0,
      "byteLength": 1624,
      "byteStride": 4,
      "target": 34962
    },
    {
      "buffer": 0,
      "byteOffset": 1624,
      "byteLength": 1624,
      "byteStride": 4,
      "target": 34962
    },
    {
      "buffer": 0,
      "byteOffset": 3248,
      "byteLength": 1624,
      "byteStride": 4,
      "target": 34962
    },
    {
      "buffer": 0,
      "byteOffset": 4872,
      "byteLength": 3248,
      "byteStride": 8,
      "target": 34962
    },
    {
      "buffer": 0,
      "byteOffset": 8120,
      "byteLength": 4092,
      "target": 34963
    }
  ],
  "buffers": [
    {
      "uri": "Avocado.bin",
      "byteLength": 12212
    }
  ],
  "extensionsRequired": ["KHR_mesh_quantization"],
  "extensionsUsed": ["KHR_mesh_quantization", "KHR_texture_transform"],
  "images": [
    {
      "uri": "Avocado_baseColor.png"
    },
    {
      "uri": "Avocado_roughnessMetallic.png"
    },
    {
      "uri": "Avocado_normal.png"
    }
  ],
  "materials": [
    {
      "name": "2256_Avocado_d",
      "pbrMetallicRoughness": {
        "baseColorTexture": {
          "index": 0,
          "texCoord": 0,
          "extensions": {
            "KHR_texture_transform": {
              "offset": [0.00678020436, 0.00298196077],
              "scale": [0.000238270484, 0.000242341906]
            }
          }
        },
        "metallicRoughnessTexture": {
          "index": 1,
          "texCoord": 0,
          "extensions": {
            "KHR_texture_transform": {
              "offset": [0.00678020436, 0.00298196077],
              "scale": [0.000238270484, 0.000242341906]
            }
          }
        }
      },
      "normalTexture": {
        "index": 2,
        "texCoord": 0,
        "extensions": {
          "KHR_texture_transform": {
            "offset": [0.00678020436, 0.00298196077],
            "scale": [0.000238270484, 0.000242341906]
          }
        }
      }
    }
  ],
  "meshes": [
    {
      "primitives": [
        {
          "attributes": {
            "TEXCOORD_0": 0,
            "NORMAL": 1,
            "TANGENT": 2,
            "POSITION": 3
          },
          "mode": 4,
          "indices": 4,
          "material": 0
        }
      ]
    }
  ],
  "nodes": [
    {
      "mesh": 0,
      "translation": [-0.0212809108, -0.0000477385511, -0.0138090011],
      "scale": [0.000003839089, 0.000003839089, 0.000003839089]
    }
  ],
  "scene": 0,
  "scenes": [
    {
      "nodes": [0]
    }
  ],
  "textures": [
    {
      "source": 0
    },
    {
      "source": 1
    },
    {
      "source": 2
    }
  ]
}
